<svg width="256" height="256" viewBox="0 0 256 256" fill="none" xmlns="http://www.w3.org/2000/svg">
<path fill-rule="evenodd" clip-rule="evenodd" d="M204.936 210.75L204.947 210.75C207.394 214.223 207.709 218.779 205.745 222.561C203.792 226.344 199.888 228.712 195.635 228.711L55.7136 228.674C52.4759 228.673 49.3851 227.387 47.0957 225.103C44.8175 222.82 43.5326 219.722 43.5335 216.496C43.5438 180.581 43.5741 75.366 43.5844 39.4619C43.5863 32.7312 49.0366 27.288 55.7715 27.2898C81.3123 27.2964 138.181 27.3112 138.181 27.3112C151.606 27.3146 163.53 29.9114 173.952 35.1229C184.374 40.3236 192.495 47.5495 198.324 56.7789C203.128 64.3896 205.754 74.6578 206.597 85.74C206.923 90.0379 204.925 94.1744 201.381 96.6171C175.554 114.509 131.536 145.739 107.705 162.742C106.972 163.267 106.058 163.449 105.144 163.277L68.5046 156.569C67.3427 156.355 66.1358 156.762 65.3797 157.64L55.3135 169.159C54.027 170.638 54.4209 172.846 56.1467 173.832C77.6227 186.024 100.734 199.641 125.129 185.211C148.688 171.263 163.594 157.398 171.962 167.228C178.199 174.561 195.001 197.318 204.936 210.75ZM138.964 131.465L164.634 113.638C166.981 112.009 166.26 108.515 163.428 107.871L99.851 93.1718C98.7794 92.925 97.64 93.182 96.805 93.8677L92.7316 97.1999C91.0729 98.5606 91.1736 101.047 92.9556 102.28L134.936 131.464C136.132 132.29 137.756 132.301 138.964 131.465Z" fill="#CA4700"/>
<path fill-rule="evenodd" clip-rule="evenodd" d="M170.096 134.631L173.038 138.435C173.394 138.895 173.294 139.54 172.818 139.873L171.09 141.079C170.614 141.411 169.938 141.307 169.583 140.847L166.641 137.043C166.285 136.583 166.382 135.939 166.858 135.607L168.586 134.401C169.062 134.068 169.74 134.171 170.096 134.631Z" fill="#CA4700"/>
<path fill-rule="evenodd" clip-rule="evenodd" d="M157.168 143.657L160.11 147.461C160.466 147.921 160.366 148.566 159.89 148.899L158.162 150.105C157.686 150.437 157.01 150.333 156.655 149.873L153.713 146.069C153.357 145.609 153.454 144.965 153.93 144.633L155.658 143.427C156.134 143.094 156.812 143.197 157.168 143.657Z" fill="#CA4700"/>
<path fill-rule="evenodd" clip-rule="evenodd" d="M183.026 125.606L185.967 129.409C186.323 129.869 186.224 130.515 185.747 130.847L184.02 132.054C183.543 132.386 182.868 132.281 182.512 131.821L179.57 128.018C179.215 127.558 179.311 126.914 179.788 126.581L181.515 125.375C181.992 125.043 182.67 125.146 183.026 125.606Z" fill="#CA4700"/>
<path fill-rule="evenodd" clip-rule="evenodd" d="M195.955 116.58L198.897 120.384C199.253 120.844 199.154 121.49 198.677 121.822L196.95 123.028C196.473 123.361 195.798 123.256 195.442 122.796L192.5 118.992C192.144 118.532 192.241 117.889 192.718 117.556L194.445 116.35C194.922 116.018 195.6 116.12 195.955 116.58Z" fill="#CA4700"/>
<path fill-rule="evenodd" clip-rule="evenodd" d="M208.883 107.556L211.825 111.36C212.181 111.82 212.081 112.465 211.605 112.798L209.877 114.004C209.401 114.336 208.725 114.232 208.37 113.772L205.428 109.968C205.072 109.508 205.169 108.864 205.645 108.532L207.373 107.326C207.849 106.993 208.528 107.096 208.883 107.556Z" fill="#CA4700"/>
</svg>
