<svg width="283" height="69" viewBox="0 0 283 69" fill="none" xmlns="http://www.w3.org/2000/svg">
<g clip-path="url(#clip0_207_66)">
<path d="M71.5654 9.02393H85.6625C87.6631 9.02393 89.4402 9.41045 90.9937 10.1867C92.5471 10.9614 93.7575 12.0379 94.6267 13.4131C95.4959 14.7883 95.9297 16.3632 95.9297 18.1393C95.9297 20.1662 95.2841 21.9727 93.9946 23.5603C92.7051 25.1495 91.0071 26.2436 88.9005 26.8426L97.51 39.0358H90.4808L82.2664 27.293H77.7254V39.0358H71.5654V9.02393ZM85.5448 22.0413C86.7553 22.0413 87.7354 21.6788 88.487 20.9536C89.2368 20.2285 89.6116 19.2909 89.6116 18.1393C89.6116 16.9893 89.2368 16.0581 88.487 15.3442C87.7354 14.6318 86.7553 14.2756 85.5448 14.2756H77.7254V22.0413H85.5448Z" fill="#090909"/>
<path d="M111.804 39.4485C109.487 39.4485 107.401 38.9182 105.545 37.8544C103.689 36.7923 102.223 35.3037 101.143 33.3902C100.064 31.4767 99.5244 29.2821 99.5244 26.8064C99.5244 24.3546 100.064 22.1728 101.143 20.2593C102.223 18.3459 103.689 16.8652 105.545 15.8143C107.401 14.7633 109.487 14.2378 111.804 14.2378C113.489 14.2378 115.035 14.5381 116.444 15.1386C117.853 15.7392 119.043 16.5889 120.019 17.6894V14.6515H126.1V39.0364H120.019V35.9601C119.043 37.0861 117.86 37.9487 116.464 38.5492C115.069 39.1482 113.516 39.4485 111.804 39.4485ZM105.802 26.8064C105.802 28.2567 106.105 29.5328 106.71 30.6333C107.315 31.7338 108.159 32.59 109.239 33.2033C110.318 33.815 111.554 34.1217 112.949 34.1217C114.344 34.1217 115.582 33.815 116.661 33.2033C117.741 32.59 118.583 31.7338 119.188 30.6333C119.795 29.5328 120.098 28.2567 120.098 26.8064C120.098 25.3801 119.795 24.1183 119.188 23.0178C118.583 21.9173 117.741 21.0659 116.661 20.4654C115.582 19.8664 114.344 19.5661 112.949 19.5661C111.554 19.5661 110.318 19.8664 109.239 20.4654C108.159 21.0659 107.315 21.9173 106.71 23.0178C106.105 24.1183 105.802 25.3801 105.802 26.8064Z" fill="#090909"/>
<path d="M129.733 41.2863C130.521 41.2863 131.16 41.0308 131.648 40.5181C132.133 40.0054 132.377 39.3361 132.377 38.5104V17.8774H138.537V38.5104C138.537 40.0868 138.162 41.4812 137.412 42.6935C136.663 43.9058 135.622 44.8498 134.292 45.5254C132.964 46.201 131.442 46.538 129.733 46.538V41.2863ZM132.377 9.02393H138.537V14.2756H132.377V9.02393Z" fill="#090909"/>
<path d="M144.816 9.02393H150.976V24.2918L159.861 14.651H167.521L156.741 26.2053L168.311 39.0358H160.611L150.976 28.3056V39.0358H144.816V9.02393Z" fill="#090909"/>
<path d="M182.172 39.4485C179.855 39.4485 177.769 38.9182 175.914 37.8544C174.058 36.7923 172.59 35.3037 171.511 33.3902C170.432 31.4767 169.892 29.2821 169.892 26.8064C169.892 24.3546 170.432 22.1728 171.511 20.2593C172.59 18.3459 174.058 16.8652 175.914 15.8143C177.769 14.7633 179.855 14.2378 182.172 14.2378C183.858 14.2378 185.403 14.5381 186.812 15.1386C188.221 15.7392 189.411 16.5889 190.386 17.6894V14.6515H196.467V39.0364H190.386V35.9601C189.411 37.0861 188.227 37.9487 186.832 38.5492C185.437 39.1482 183.883 39.4485 182.172 39.4485ZM176.17 26.8064C176.17 28.2567 176.472 29.5328 177.078 30.6333C177.685 31.7338 178.527 32.59 179.606 33.2033C180.686 33.815 181.923 34.1217 183.318 34.1217C184.712 34.1217 185.949 33.815 187.029 33.2033C188.108 32.59 188.95 31.7338 189.557 30.6333C190.163 29.5328 190.465 28.2567 190.465 26.8064C190.465 25.3801 190.163 24.1183 189.557 23.0178C188.95 21.9173 188.108 21.0659 187.029 20.4654C185.949 19.8664 184.712 19.5661 183.318 19.5661C181.923 19.5661 180.686 19.8664 179.606 20.4654C178.527 21.0659 177.685 21.9173 177.078 23.0178C176.472 24.1183 176.17 25.3801 176.17 26.8064Z" fill="#090909"/>
<path d="M202.785 14.6515H208.866V17.6894C209.34 16.664 210.176 15.8334 211.375 15.1945C212.572 14.5572 213.895 14.2378 215.342 14.2378C216.869 14.2378 218.251 14.5572 219.488 15.1945C220.725 15.8334 221.726 16.7391 222.489 17.9146C223.306 16.7391 224.372 15.8334 225.688 15.1945C227.005 14.5572 228.479 14.2378 230.112 14.2378C231.875 14.2378 233.447 14.6259 234.829 15.4022C236.211 16.1768 237.291 17.2582 238.067 18.6462C238.844 20.0341 239.232 21.617 239.232 23.3915V39.0364H233.072V23.6167C233.072 22.3917 232.671 21.3982 231.869 20.6347C231.065 19.8728 230.019 19.4911 228.728 19.4911C227.36 19.4911 226.248 19.8728 225.393 20.6347C224.537 21.3982 224.108 22.3917 224.108 23.6167V39.0364H217.948V23.6167C217.948 22.3917 217.541 21.3982 216.724 20.6347C215.909 19.8728 214.855 19.4911 213.565 19.4911C212.224 19.4911 211.117 19.8728 210.248 20.6347C209.379 21.3982 208.945 22.3917 208.945 23.6167V39.0364H202.785V14.6515Z" fill="#090909"/>
<path d="M255.463 39.4485C253.146 39.4485 251.06 38.9182 249.204 37.8544C247.347 36.7923 245.88 35.3037 244.8 33.3902C243.721 31.4767 243.181 29.2821 243.181 26.8064C243.181 24.3546 243.721 22.1728 244.8 20.2593C245.88 18.3459 247.347 16.8652 249.204 15.8143C251.06 14.7633 253.146 14.2378 255.463 14.2378C257.147 14.2378 258.694 14.5381 260.101 15.1386C261.51 15.7392 262.702 16.5889 263.676 17.6894V14.6515H269.757V39.0364H263.676V35.9601C262.702 37.0861 261.517 37.9487 260.121 38.5492C258.726 39.1482 257.173 39.4485 255.463 39.4485ZM249.461 26.8064C249.461 28.2567 249.763 29.5328 250.369 30.6333C250.974 31.7338 251.816 32.59 252.896 33.2033C253.975 33.815 255.212 34.1217 256.608 34.1217C258.003 34.1217 259.24 33.815 260.32 33.2033C261.399 32.59 262.241 31.7338 262.847 30.6333C263.452 29.5328 263.755 28.2567 263.755 26.8064C263.755 25.3801 263.452 24.1183 262.847 23.0178C262.241 21.9173 261.399 21.0659 260.32 20.4654C259.24 19.8664 258.003 19.5661 256.608 19.5661C255.212 19.5661 253.975 19.8664 252.896 20.4654C251.816 21.0659 250.974 21.9173 250.369 23.0178C249.763 24.1183 249.461 25.3801 249.461 26.8064Z" fill="#090909"/>
<path d="M282.235 9.02393H276.075V39.0358H282.235V9.02393Z" fill="#090909"/>
<path fill-rule="evenodd" clip-rule="evenodd" d="M79.8314 51.0078V52.4217H76.481V60.441H74.924V52.4217H71.5659V51.0078H79.8314Z" fill="#090909"/>
<path fill-rule="evenodd" clip-rule="evenodd" d="M84.8992 55.8369C84.8992 54.8412 85.0952 53.9711 85.4868 53.2266C85.8785 52.4821 86.428 51.9032 87.1354 51.4899C87.8427 51.0766 88.6694 50.8701 89.6158 50.8701C90.557 50.8701 91.38 51.0766 92.0846 51.4899C92.7895 51.9032 93.339 52.4821 93.7331 53.2266C94.1275 53.9711 94.3248 54.8412 94.3248 55.8369C94.3248 56.7795 94.1275 57.6049 93.7331 58.3129C93.339 59.0211 92.7895 59.5722 92.0846 59.966C91.38 60.3602 90.557 60.5571 89.6158 60.5571C88.6694 60.5571 87.8427 60.3602 87.1354 59.966C86.428 59.5722 85.8785 59.0211 85.4868 58.3129C85.0952 57.6049 84.8992 56.7795 84.8992 55.8369ZM92.7144 55.8369C92.7144 54.7008 92.4421 53.8174 91.8978 53.1866C91.3534 52.5558 90.5927 52.2405 89.6158 52.2405C88.6288 52.2405 87.8628 52.5558 87.3185 53.1866C86.7742 53.8174 86.5019 54.7008 86.5019 55.8369C86.5019 56.8906 86.7742 57.7111 87.3185 58.2984C87.8628 58.8857 88.6288 59.1795 89.6158 59.1795C90.5927 59.1795 91.3534 58.8857 91.8978 58.2984C92.4421 57.7111 92.7144 56.8906 92.7144 55.8369Z" fill="#090909"/>
<path fill-rule="evenodd" clip-rule="evenodd" d="M100.224 51.0078H101.781V56.6924C101.781 57.4659 102.006 58.064 102.457 58.4868C102.907 58.91 103.537 59.1214 104.346 59.1214C105.129 59.1214 105.737 58.91 106.17 58.4868C106.602 58.064 106.818 57.4659 106.818 56.6924V51.0078H108.391V56.6924C108.391 57.4705 108.222 58.1486 107.883 58.7261C107.545 59.3038 107.072 59.7534 106.463 60.0747C105.856 60.3964 105.149 60.557 104.346 60.557C103.521 60.557 102.8 60.3964 102.182 60.0747C101.564 59.7534 101.083 59.3038 100.739 58.7261C100.396 58.1486 100.224 57.4705 100.224 56.6924V51.0078Z" fill="#090909"/>
<path fill-rule="evenodd" clip-rule="evenodd" d="M118.267 56.8229H116.023V60.441H114.443V51.0078H118.877C119.539 51.0078 120.119 51.1238 120.617 51.3559C121.116 51.5879 121.504 51.913 121.781 52.3309C122.059 52.7492 122.197 53.241 122.197 53.8066C122.197 54.3962 122.023 54.9003 121.674 55.3182C121.326 55.7365 120.854 56.0303 120.259 56.1994C120.818 56.3058 121.232 56.5172 121.499 56.8336C121.766 57.1504 121.938 57.6109 122.014 58.2151L122.281 60.441H120.74L120.48 58.3746C120.414 57.838 120.208 57.4453 119.862 57.1962C119.516 56.9473 118.984 56.8229 118.267 56.8229ZM118.702 52.342H116.023V55.5105H118.702C119.307 55.5105 119.778 55.3739 120.114 55.1007C120.45 54.8278 120.617 54.4447 120.617 53.9516C120.617 53.4391 120.45 53.043 120.114 52.7625C119.778 52.482 119.307 52.342 118.702 52.342Z" fill="#090909"/>
<path fill-rule="evenodd" clip-rule="evenodd" d="M132.142 56.4533L130.768 56.3083C129.831 56.2117 129.106 55.9409 128.593 55.4962C128.079 55.0516 127.822 54.4521 127.822 53.6981C127.822 52.8329 128.154 52.1476 128.818 51.6423C129.482 51.1374 130.386 50.8848 131.531 50.8848C132.63 50.8848 133.521 51.1519 134.202 51.6858C134.884 52.2201 135.273 52.9536 135.37 53.8866H133.775C133.678 53.3016 133.447 52.8677 133.08 52.5849C132.714 52.3021 132.193 52.1609 131.516 52.1609C130.875 52.1609 130.362 52.2975 129.978 52.5704C129.594 52.8436 129.402 53.205 129.402 53.6545C129.402 54.0267 129.537 54.3106 129.806 54.5064C130.076 54.7021 130.498 54.8387 131.073 54.9162L132.371 55.0684C134.477 55.2955 135.53 56.2068 135.53 57.802C135.53 58.358 135.378 58.8423 135.072 59.2556C134.767 59.6689 134.34 59.9894 133.79 60.2165C133.241 60.4436 132.599 60.5573 131.867 60.5573C130.661 60.5573 129.695 60.2817 128.97 59.7307C128.245 59.1796 127.832 58.445 127.73 57.5264H129.348C129.547 58.6866 130.391 59.2666 131.882 59.2666C132.498 59.2666 132.995 59.1323 133.374 58.8641C133.753 58.5958 133.943 58.237 133.943 57.7875C133.943 57.0238 133.342 56.5789 132.142 56.4533Z" fill="#090909"/>
<path fill-rule="evenodd" clip-rule="evenodd" d="M150.913 50.8994C151.473 50.8994 151.965 50.9986 152.39 51.1967C152.815 51.3948 153.148 51.6703 153.39 52.0233C153.631 52.3762 153.752 52.7846 153.752 53.2487C153.752 53.8577 153.56 54.3542 153.176 54.7385C152.792 55.1228 152.262 55.4506 151.585 55.7212L153.523 57.6064C153.788 57.0892 153.961 56.4848 154.042 55.7937H155.538C155.487 56.3398 155.378 56.85 155.21 57.3236C155.042 57.7972 154.823 58.225 154.554 58.607L156.446 60.4414H154.577L153.661 59.5641C153.269 59.8831 152.829 60.1285 152.343 60.2999C151.856 60.4716 151.34 60.5574 150.795 60.5574C150.092 60.5574 149.478 60.4487 148.954 60.2311C148.429 60.0136 148.022 59.7079 147.731 59.3138C147.441 58.9199 147.296 58.4619 147.296 57.9399C147.296 57.2969 147.49 56.792 147.879 56.4245C148.269 56.057 148.769 55.7333 149.379 55.4529C149.033 55.1144 148.748 54.7664 148.524 54.4088C148.301 54.0512 148.189 53.6498 148.189 53.2052C148.189 52.7507 148.304 52.3507 148.536 52.005C148.767 51.6596 149.088 51.3887 149.497 51.1929C149.907 50.9972 150.379 50.8994 150.913 50.8994ZM149.761 53.2342C149.761 53.5581 149.85 53.8493 150.028 54.1077C150.206 54.3664 150.435 54.6286 150.715 54.8946C151.157 54.7061 151.527 54.4848 151.825 54.231C152.123 53.9772 152.272 53.6425 152.272 53.2269C152.272 52.8838 152.152 52.6068 151.913 52.3966C151.674 52.1863 151.358 52.0813 150.967 52.0813C150.595 52.0813 150.301 52.1851 150.085 52.3931C149.869 52.601 149.761 52.8812 149.761 53.2342ZM148.906 57.8674C148.906 58.3265 149.074 58.6829 149.41 58.9367C149.746 59.1905 150.224 59.3175 150.845 59.3175C151.567 59.3175 152.19 59.0951 152.714 58.6505L150.203 56.2432C149.832 56.4077 149.523 56.6153 149.276 56.8668C149.029 57.1182 148.906 57.4518 148.906 57.8674Z" fill="#090909"/>
<path fill-rule="evenodd" clip-rule="evenodd" d="M174.16 51.0078V52.4217H170.809V60.441H169.252V52.4217H165.894V51.0078H174.16Z" fill="#090909"/>
<path fill-rule="evenodd" clip-rule="evenodd" d="M183.806 56.8229H181.562V60.441H179.983V51.0078H184.417C185.078 51.0078 185.658 51.1238 186.157 51.3559C186.656 51.5879 187.044 51.913 187.321 52.3309C187.598 52.7492 187.737 53.241 187.737 53.8066C187.737 54.3962 187.563 54.9003 187.214 55.3182C186.866 55.7365 186.394 56.0303 185.798 56.1994C186.358 56.3058 186.771 56.5172 187.038 56.8336C187.305 57.1504 187.477 57.6109 187.554 58.2151L187.821 60.441H186.279L186.02 58.3746C185.953 57.838 185.747 57.4453 185.401 57.1962C185.056 56.9473 184.524 56.8229 183.806 56.8229ZM184.241 52.342H181.562V55.5105H184.241C184.847 55.5105 185.317 55.3739 185.653 55.1007C185.989 54.8278 186.157 54.4447 186.157 53.9516C186.157 53.4391 185.989 53.043 185.653 52.7625C185.317 52.482 184.847 52.342 184.241 52.342Z" fill="#090909"/>
<path fill-rule="evenodd" clip-rule="evenodd" d="M202.55 60.441H200.887L200.001 58.1788H195.735L194.865 60.441H193.178L196.987 51.0078H198.765L202.55 60.441ZM197.841 52.6755L196.208 56.9389H199.513L197.841 52.6755Z" fill="#090909"/>
<path fill-rule="evenodd" clip-rule="evenodd" d="M206.038 51.0078H207.71L210.602 58.7661L213.464 51.0078H215.143L211.48 60.441H209.702L206.038 51.0078Z" fill="#090909"/>
<path fill-rule="evenodd" clip-rule="evenodd" d="M227.912 51.0078V52.4217H222.356V54.974H227.477V56.3009H222.356V59.0416H227.912V60.441H220.776V51.0078H227.912Z" fill="#090909"/>
<path fill-rule="evenodd" clip-rule="evenodd" d="M240.863 60.441H233.88V51.0078H235.46V59.0416H240.863V60.441Z" fill="#090909"/>
<path fill-rule="evenodd" clip-rule="evenodd" d="M250.549 56.4533L249.175 56.3083C248.238 56.2117 247.513 55.9409 247 55.4962C246.486 55.0516 246.229 54.4521 246.229 53.6981C246.229 52.8329 246.561 52.1476 247.225 51.6423C247.889 51.1374 248.793 50.8848 249.938 50.8848C251.037 50.8848 251.928 51.1519 252.609 51.6858C253.291 52.2201 253.68 52.9536 253.777 53.8866H252.182C252.085 53.3016 251.854 52.8677 251.487 52.5849C251.121 52.3021 250.6 52.1609 249.923 52.1609C249.282 52.1609 248.769 52.2975 248.385 52.5704C248.001 52.8436 247.809 53.205 247.809 53.6545C247.809 54.0267 247.944 54.3106 248.213 54.5064C248.483 54.7021 248.905 54.8387 249.48 54.9162L250.778 55.0684C252.884 55.2955 253.937 56.2068 253.937 57.802C253.937 58.358 253.785 58.8423 253.479 59.2556C253.174 59.6689 252.747 59.9894 252.197 60.2165C251.648 60.4436 251.006 60.5573 250.274 60.5573C249.068 60.5573 248.102 60.2817 247.377 59.7307C246.652 59.1796 246.239 58.445 246.137 57.5264H247.755C247.954 58.6866 248.798 59.2666 250.289 59.2666C250.905 59.2666 251.402 59.1323 251.781 58.8641C252.16 58.5958 252.35 58.237 252.35 57.7875C252.35 57.0238 251.749 56.5789 250.549 56.4533Z" fill="#090909"/>
<path fill-rule="evenodd" clip-rule="evenodd" d="M54.1032 61.4986L54.107 61.4986C54.9273 62.6628 55.0328 64.1897 54.3744 65.4577C53.7199 66.7257 52.4113 67.5193 50.9856 67.519L4.08339 67.5068C2.99809 67.5065 1.96205 67.0752 1.19462 66.3097C0.430973 65.5443 0.000257571 64.5059 0.000568399 63.4245C0.00402882 51.3858 0.0141663 16.1173 0.0176257 4.08217C0.0182742 1.82602 1.84522 0.0014504 4.10279 0.00203609C12.6641 0.00425721 31.7268 0.00920273 31.7268 0.00920273C36.2268 0.0103702 40.2237 0.880803 43.7173 2.62771C47.2109 4.37102 49.9328 6.79315 51.887 9.88688C53.4972 12.438 54.3773 15.88 54.6599 19.5948C54.7691 21.0354 54.0994 22.422 52.9117 23.2408C44.2541 29.2382 29.4994 39.7067 21.5112 45.4061C21.2653 45.5821 20.959 45.6431 20.6528 45.5855L8.37097 43.337C7.98149 43.265 7.57692 43.4014 7.32347 43.696L3.94925 47.5571C3.51802 48.0528 3.65006 48.7929 4.22854 49.1236C11.4274 53.2102 19.1745 57.7748 27.3515 52.9377C35.2487 48.2622 40.2454 43.6147 43.0503 46.9098C45.1408 49.3677 50.773 56.9962 54.1032 61.4986ZM31.9891 34.9221L40.5937 28.9462C41.3804 28.4004 41.1388 27.2291 40.1897 27.0133L18.8784 22.0859C18.5192 22.0032 18.1373 22.0893 17.8574 22.3192L16.4919 23.4361C15.9359 23.8923 15.9697 24.7257 16.567 25.139L30.639 34.9217C31.0397 35.1985 31.5844 35.2022 31.9891 34.9221Z" fill="#CA4700"/>
<path fill-rule="evenodd" clip-rule="evenodd" d="M42.4248 35.9833L43.4109 37.2583C43.5301 37.4125 43.4968 37.6289 43.3372 37.7404L42.758 38.1446C42.5984 38.2561 42.3719 38.221 42.2527 38.0668L41.2665 36.7918C41.1473 36.6377 41.1798 36.4218 41.3394 36.3104L41.9186 35.9061C42.0782 35.7947 42.3056 35.8291 42.4248 35.9833Z" fill="#CA4700"/>
<path fill-rule="evenodd" clip-rule="evenodd" d="M38.0913 39.0087L39.0774 40.2837C39.1966 40.4379 39.1633 40.6543 39.0037 40.7657L38.4245 41.17C38.2649 41.2815 38.0384 41.2464 37.9192 41.0922L36.933 39.8172C36.8138 39.6631 36.8463 39.4472 37.0059 39.3358L37.5851 38.9315C37.7447 38.82 37.9721 38.8545 38.0913 39.0087Z" fill="#CA4700"/>
<path fill-rule="evenodd" clip-rule="evenodd" d="M46.7588 32.9579L47.7449 34.2329C47.8641 34.3871 47.8308 34.6035 47.6711 34.715L47.092 35.1192C46.9323 35.2307 46.7059 35.1956 46.5866 35.0415L45.6005 33.7664C45.4813 33.6123 45.5137 33.3964 45.6734 33.285L46.2525 32.8807C46.4122 32.7693 46.6396 32.8038 46.7588 32.9579Z" fill="#CA4700"/>
<path fill-rule="evenodd" clip-rule="evenodd" d="M51.093 29.9325L52.0791 31.2075C52.1983 31.3617 52.165 31.5781 52.0054 31.6896L51.4262 32.0938C51.2666 32.2053 51.0401 32.1702 50.9209 32.0161L49.9348 30.741C49.8155 30.5869 49.848 30.3711 50.0076 30.2596L50.5868 29.8553C50.7464 29.7439 50.9738 29.7784 51.093 29.9325Z" fill="#CA4700"/>
<path fill-rule="evenodd" clip-rule="evenodd" d="M55.4265 26.9076L56.4126 28.1826C56.5318 28.3368 56.4985 28.5532 56.3389 28.6647L55.7597 29.0689C55.6001 29.1804 55.3736 29.1453 55.2544 28.9912L54.2683 27.7161C54.149 27.562 54.1815 27.3462 54.3411 27.2347L54.9203 26.8304C55.0799 26.719 55.3073 26.7535 55.4265 26.9076Z" fill="#CA4700"/>
</g>
<defs>
<clipPath id="clip0_207_66">
<rect width="282.273" height="69" fill="white"/>
</clipPath>
</defs>
</svg>
