<?xml version="1.0" encoding="UTF-8" standalone="no"?>
<!DOCTYPE svg PUBLIC "-//W3C//DTD SVG 1.1//EN" "http://www.w3.org/Graphics/SVG/1.1/DTD/svg11.dtd">
<svg width="100%" height="100%" viewBox="0 0 347 88" version="1.1" xmlns="http://www.w3.org/2000/svg" xmlns:xlink="http://www.w3.org/1999/xlink" xml:space="preserve" xmlns:serif="http://www.serif.com/" style="fill-rule:evenodd;clip-rule:evenodd;stroke-linejoin:round;stroke-miterlimit:2;">
    <g transform="matrix(1,0,0,1,-139.973248,-913.190726)">
        <g transform="matrix(1,0,0,1,-1629.969033,656.875054)">
            <g transform="matrix(1,0,0,1,0,-91.504785)">
                <g transform="matrix(2.066741,0,0,2.066741,1075.733265,49.236043)">
                    <path d="M378.463,150.121L386.848,150.121C388.038,150.121 389.095,150.363 390.019,150.849C390.943,151.334 391.663,152.008 392.18,152.869C392.697,153.73 392.955,154.716 392.955,155.828C392.955,157.097 392.571,158.228 391.804,159.222C391.037,160.217 390.027,160.902 388.774,161.277L393.895,168.911L389.714,168.911L384.828,161.559L382.127,161.559L382.127,168.911L378.463,168.911L378.463,150.121ZM386.778,158.271C387.498,158.271 388.081,158.044 388.528,157.59C388.974,157.136 389.197,156.549 389.197,155.828C389.197,155.108 388.974,154.525 388.528,154.078C388.081,153.632 387.498,153.409 386.778,153.409L382.127,153.409L382.127,158.271L386.778,158.271Z" style="fill:rgb(9,9,9);fill-rule:nonzero;"/>
                    <path d="M402.397,169.169C401.019,169.169 399.778,168.837 398.674,168.171C397.57,167.506 396.698,166.574 396.056,165.376C395.414,164.178 395.093,162.804 395.093,161.254C395.093,159.719 395.414,158.353 396.056,157.155C396.698,155.957 397.57,155.03 398.674,154.372C399.778,153.714 401.019,153.385 402.397,153.385C403.399,153.385 404.319,153.573 405.157,153.949C405.995,154.325 406.703,154.857 407.283,155.546L407.283,153.644L410.9,153.644L410.9,168.911L407.283,168.911L407.283,166.985C406.703,167.69 405.999,168.23 405.169,168.606C404.339,168.981 403.415,169.169 402.397,169.169ZM398.827,161.254C398.827,162.162 399.007,162.961 399.367,163.65C399.727,164.339 400.229,164.875 400.871,165.259C401.513,165.642 402.248,165.834 403.078,165.834C403.908,165.834 404.644,165.642 405.286,165.259C405.928,164.875 406.429,164.339 406.789,163.65C407.15,162.961 407.33,162.162 407.33,161.254C407.33,160.361 407.15,159.571 406.789,158.882C406.429,158.193 405.928,157.66 405.286,157.284C404.644,156.909 403.908,156.721 403.078,156.721C402.248,156.721 401.513,156.909 400.871,157.284C400.229,157.66 399.727,158.193 399.367,158.882C399.007,159.571 398.827,160.361 398.827,161.254Z" style="fill:rgb(9,9,9);fill-rule:nonzero;"/>
                    <path d="M413.061,170.32C413.53,170.32 413.91,170.16 414.2,169.839C414.489,169.518 414.634,169.099 414.634,168.582L414.634,155.664L418.298,155.664L418.298,168.582C418.298,169.569 418.075,170.442 417.629,171.201C417.183,171.96 416.564,172.551 415.773,172.974C414.983,173.397 414.078,173.608 413.061,173.608L413.061,170.32ZM414.634,150.121L418.298,150.121L418.298,153.409L414.634,153.409L414.634,150.121Z" style="fill:rgb(9,9,9);fill-rule:nonzero;"/>
                    <path d="M422.033,150.121L425.697,150.121L425.697,159.68L430.982,153.644L435.538,153.644L429.126,160.878L436.008,168.911L431.428,168.911L425.697,162.193L425.697,168.911L422.033,168.911L422.033,150.121Z" style="fill:rgb(9,9,9);fill-rule:nonzero;"/>
                    <path d="M444.252,169.169C442.874,169.169 441.633,168.837 440.53,168.171C439.426,167.506 438.553,166.574 437.911,165.376C437.269,164.178 436.948,162.804 436.948,161.254C436.948,159.719 437.269,158.353 437.911,157.155C438.553,155.957 439.426,155.03 440.53,154.372C441.633,153.714 442.874,153.385 444.252,153.385C445.255,153.385 446.174,153.573 447.012,153.949C447.85,154.325 448.558,154.857 449.138,155.546L449.138,153.644L452.755,153.644L452.755,168.911L449.138,168.911L449.138,166.985C448.558,167.69 447.854,168.23 447.024,168.606C446.194,168.981 445.27,169.169 444.252,169.169ZM440.682,161.254C440.682,162.162 440.862,162.961 441.222,163.65C441.583,164.339 442.084,164.875 442.726,165.259C443.368,165.642 444.104,165.834 444.934,165.834C445.763,165.834 446.499,165.642 447.141,165.259C447.783,164.875 448.284,164.339 448.645,163.65C449.005,162.961 449.185,162.162 449.185,161.254C449.185,160.361 449.005,159.571 448.645,158.882C448.284,158.193 447.783,157.66 447.141,157.284C446.499,156.909 445.763,156.721 444.934,156.721C444.104,156.721 443.368,156.909 442.726,157.284C442.084,157.66 441.583,158.193 441.222,158.882C440.862,159.571 440.682,160.361 440.682,161.254Z" style="fill:rgb(9,9,9);fill-rule:nonzero;"/>
                    <path d="M456.513,153.644L460.13,153.644L460.13,155.546C460.412,154.904 460.909,154.384 461.622,153.984C462.334,153.585 463.121,153.385 463.982,153.385C464.89,153.385 465.712,153.585 466.448,153.984C467.184,154.384 467.779,154.951 468.233,155.687C468.719,154.951 469.353,154.384 470.136,153.984C470.919,153.585 471.796,153.385 472.767,153.385C473.816,153.385 474.751,153.628 475.573,154.114C476.395,154.599 477.037,155.276 477.499,156.145C477.961,157.014 478.192,158.005 478.192,159.116L478.192,168.911L474.528,168.911L474.528,159.257C474.528,158.49 474.289,157.868 473.812,157.39C473.334,156.913 472.712,156.674 471.944,156.674C471.13,156.674 470.469,156.913 469.96,157.39C469.451,157.868 469.196,158.49 469.196,159.257L469.196,168.911L465.532,168.911L465.532,159.257C465.532,158.49 465.29,157.868 464.804,157.39C464.319,156.913 463.692,156.674 462.925,156.674C462.127,156.674 461.469,156.913 460.952,157.39C460.435,157.868 460.177,158.49 460.177,159.257L460.177,168.911L456.513,168.911L456.513,153.644Z" style="fill:rgb(9,9,9);fill-rule:nonzero;"/>
                    <path d="M487.846,169.169C486.468,169.169 485.227,168.837 484.123,168.171C483.019,167.506 482.146,166.574 481.504,165.376C480.862,164.178 480.541,162.804 480.541,161.254C480.541,159.719 480.862,158.353 481.504,157.155C482.146,155.957 483.019,155.03 484.123,154.372C485.227,153.714 486.468,153.385 487.846,153.385C488.848,153.385 489.768,153.573 490.605,153.949C491.443,154.325 492.152,154.857 492.731,155.546L492.731,153.644L496.348,153.644L496.348,168.911L492.731,168.911L492.731,166.985C492.152,167.69 491.447,168.23 490.617,168.606C489.787,168.981 488.863,169.169 487.846,169.169ZM484.276,161.254C484.276,162.162 484.456,162.961 484.816,163.65C485.176,164.339 485.677,164.875 486.319,165.259C486.961,165.642 487.697,165.834 488.527,165.834C489.357,165.834 490.093,165.642 490.735,165.259C491.377,164.875 491.878,164.339 492.238,163.65C492.598,162.961 492.778,162.162 492.778,161.254C492.778,160.361 492.598,159.571 492.238,158.882C491.878,158.193 491.377,157.66 490.735,157.284C490.093,156.909 489.357,156.721 488.527,156.721C487.697,156.721 486.961,156.909 486.319,157.284C485.677,157.66 485.176,158.193 484.816,158.882C484.456,159.571 484.276,160.361 484.276,161.254Z" style="fill:rgb(9,9,9);fill-rule:nonzero;"/>
                    <rect x="500.106" y="150.121" width="3.664" height="18.79" style="fill:rgb(9,9,9);fill-rule:nonzero;"/>
                </g>
                <g transform="matrix(0.7977,0,0,0.7977,1556.56197,291.13932)">
                    <path d="M377.782,153.632L380.213,153.632L380.213,159.88L387.741,159.88L387.741,153.632L390.137,153.632L390.137,168.911L387.741,168.911L387.741,162.158L380.213,162.158L380.213,168.911L377.782,168.911L377.782,153.632Z" style="fill:rgb(9,9,9);fill-rule:nonzero;"/>
                    <path d="M399.356,161.454C399.356,159.841 399.657,158.431 400.26,157.226C400.863,156.02 401.708,155.082 402.797,154.413C403.885,153.744 405.157,153.409 406.613,153.409C408.062,153.409 409.328,153.744 410.412,154.413C411.497,155.082 412.342,156.02 412.949,157.226C413.556,158.431 413.859,159.841 413.859,161.454C413.859,162.98 413.556,164.317 412.949,165.464C412.342,166.611 411.497,167.504 410.412,168.142C409.328,168.78 408.062,169.099 406.613,169.099C405.157,169.099 403.885,168.78 402.797,168.142C401.708,167.504 400.863,166.611 400.26,165.464C399.657,164.317 399.356,162.98 399.356,161.454ZM411.381,161.454C411.381,159.614 410.962,158.183 410.125,157.161C409.287,156.139 408.116,155.629 406.613,155.629C405.094,155.629 403.916,156.139 403.078,157.161C402.241,158.183 401.822,159.614 401.822,161.454C401.822,163.16 402.241,164.489 403.078,165.441C403.916,166.392 405.094,166.867 406.613,166.867C408.116,166.867 409.287,166.392 410.125,165.441C410.962,164.489 411.381,163.16 411.381,161.454Z" style="fill:rgb(9,9,9);fill-rule:nonzero;"/>
                    <path d="M433.789,168.911L423.043,168.911L423.043,153.632L425.474,153.632L425.474,166.644L433.789,166.644L433.789,168.911Z" style="fill:rgb(9,9,9);fill-rule:nonzero;"/>
                    <rect x="442.749" y="153.632" width="2.431" height="15.279" style="fill:rgb(9,9,9);fill-rule:nonzero;"/>
                    <path d="M460.06,153.632C461.61,153.632 462.966,153.949 464.129,154.583C465.292,155.218 466.198,156.108 466.848,157.255C467.497,158.402 467.822,159.735 467.822,161.254C467.822,162.788 467.511,164.129 466.889,165.276C466.266,166.423 465.399,167.316 464.287,167.954C463.176,168.592 461.88,168.911 460.4,168.911L454.575,168.911L454.575,153.632L460.06,153.632ZM457.006,155.828L457.006,166.727L460.154,166.727C461.79,166.727 463.062,166.247 463.97,165.288C464.879,164.329 465.333,162.984 465.333,161.254C465.333,159.539 464.853,158.206 463.894,157.255C462.935,156.304 461.582,155.828 459.837,155.828L457.006,155.828Z" style="fill:rgb(9,9,9);fill-rule:nonzero;"/>
                    <path d="M489.502,168.911L486.941,168.911L485.579,165.247L479.014,165.247L477.675,168.911L475.08,168.911L480.94,153.632L483.677,153.632L489.502,168.911ZM482.256,156.333L479.742,163.239L484.827,163.239L482.256,156.333Z" style="fill:rgb(9,9,9);fill-rule:nonzero;"/>
                    <path d="M499.59,163.708L494.27,153.632L496.994,153.632L500.823,161.066L504.663,153.632L507.376,153.632L501.985,163.708L501.985,168.911L499.59,168.911L499.59,163.708Z" style="fill:rgb(9,9,9);fill-rule:nonzero;"/>
                    <g transform="matrix(1,0,0,1,-18.860664,0)">
                        <path d="M541.691,162.452L539.577,162.217C538.137,162.06 537.021,161.622 536.23,160.902C535.44,160.181 535.044,159.21 535.044,157.989C535.044,156.588 535.555,155.478 536.577,154.66C537.599,153.842 538.99,153.432 540.752,153.432C542.443,153.432 543.813,153.865 544.862,154.73C545.911,155.595 546.51,156.783 546.659,158.294L544.205,158.294C544.056,157.347 543.7,156.644 543.136,156.186C542.572,155.728 541.77,155.499 540.728,155.499C539.742,155.499 538.953,155.721 538.362,156.163C537.771,156.605 537.475,157.191 537.475,157.919C537.475,158.521 537.683,158.981 538.098,159.299C538.513,159.616 539.162,159.837 540.047,159.962L542.044,160.209C545.285,160.577 546.906,162.052 546.906,164.636C546.906,165.536 546.671,166.321 546.201,166.991C545.731,167.66 545.074,168.179 544.228,168.547C543.382,168.915 542.396,169.099 541.269,169.099C539.413,169.099 537.927,168.653 536.812,167.76C535.696,166.867 535.06,165.677 534.903,164.19L537.393,164.19C537.698,166.069 538.998,167.008 541.292,167.008C542.239,167.008 543.005,166.791 543.588,166.357C544.171,165.922 544.463,165.341 544.463,164.613C544.463,163.376 543.539,162.655 541.691,162.452Z" style="fill:rgb(9,9,9);fill-rule:nonzero;"/>
                    </g>
                </g>
                <g transform="matrix(0.938246,0,0,0.938246,1636.81205,135.840516)">
                    <g transform="matrix(1,0,0,1,356.935204,-171.523337)">
                        <g transform="matrix(4.954618,0.001353,-0.001353,4.954618,-2089.954697,-346.847117)">
                            <path d="M392.77,167.235C392.77,167.235 392.77,167.235 392.77,167.235C392.992,167.565 393.013,167.99 392.826,168.341C392.639,168.692 392.274,168.911 391.876,168.911C388.568,168.911 382.101,168.911 379.543,168.911C379.256,168.911 378.982,168.797 378.779,168.595C378.577,168.392 378.463,168.118 378.463,167.832C378.463,164.518 378.463,154.514 378.463,151.2C378.463,150.604 378.946,150.121 379.543,150.121L386.848,150.121C388.038,150.121 389.095,150.363 390.019,150.849C390.943,151.334 391.663,152.008 392.18,152.869C392.614,153.593 392.848,154.573 392.918,155.63C392.942,155.999 392.775,156.354 392.476,156.57C390.19,158.236 386.269,161.166 384.15,162.758C384.085,162.807 384.004,162.824 383.923,162.808L380.675,162.183C380.572,162.163 380.465,162.201 380.398,162.283L379.506,163.358C379.392,163.496 379.427,163.702 379.58,163.794C381.484,164.931 383.533,166.201 385.695,164.854C387.783,163.552 389.104,162.258 389.846,163.175C390.399,163.859 391.889,165.982 392.77,167.235ZM386.92,159.839L389.195,158.175C389.403,158.023 389.339,157.697 389.088,157.637L383.452,156.267C383.357,156.244 383.256,156.268 383.182,156.332L382.821,156.643C382.674,156.77 382.683,157.002 382.841,157.117L386.563,159.839C386.669,159.916 386.813,159.917 386.92,159.839Z" style="fill:rgb(202,71,0);"/>
                        </g>
                        <g transform="matrix(1.13082,-0.830885,0.830885,1.13082,-352.9985,-111.412925)">
                            <path d="M-124.514,402.39L-124.514,403.956C-124.514,404.141 -124.665,404.292 -124.85,404.292L-125.521,404.292C-125.706,404.292 -125.856,404.141 -125.856,403.956L-125.856,402.39C-125.856,402.205 -125.706,402.055 -125.521,402.055L-124.85,402.055C-124.665,402.055 -124.514,402.205 -124.514,402.39Z" style="fill:rgb(202,71,0);"/>
                        </g>
                        <g transform="matrix(1.13082,-0.830885,0.830885,1.13082,-358.676851,-107.24068)">
                            <path d="M-124.514,402.39L-124.514,403.956C-124.514,404.141 -124.665,404.292 -124.85,404.292L-125.521,404.292C-125.706,404.292 -125.856,404.141 -125.856,403.956L-125.856,402.39C-125.856,402.205 -125.706,402.055 -125.521,402.055L-124.85,402.055C-124.665,402.055 -124.514,402.205 -124.514,402.39Z" style="fill:rgb(202,71,0);"/>
                        </g>
                        <g transform="matrix(1.13082,-0.830885,0.830885,1.13082,-347.32015,-115.58517)">
                            <path d="M-124.514,402.39L-124.514,403.956C-124.514,404.141 -124.665,404.292 -124.85,404.292L-125.521,404.292C-125.706,404.292 -125.856,404.141 -125.856,403.956L-125.856,402.39C-125.856,402.205 -125.706,402.055 -125.521,402.055L-124.85,402.055C-124.665,402.055 -124.514,402.205 -124.514,402.39Z" style="fill:rgb(202,71,0);"/>
                        </g>
                        <g transform="matrix(1.13082,-0.830885,0.830885,1.13082,-341.641799,-119.757414)">
                            <path d="M-124.514,402.39L-124.514,403.956C-124.514,404.141 -124.665,404.292 -124.85,404.292L-125.521,404.292C-125.706,404.292 -125.856,404.141 -125.856,403.956L-125.856,402.39C-125.856,402.205 -125.706,402.055 -125.521,402.055L-124.85,402.055C-124.665,402.055 -124.514,402.205 -124.514,402.39Z" style="fill:rgb(202,71,0);"/>
                        </g>
                        <g transform="matrix(1.13082,-0.830885,0.830885,1.13082,-335.963449,-123.929659)">
                            <path d="M-124.514,402.39L-124.514,403.956C-124.514,404.141 -124.665,404.292 -124.85,404.292L-125.521,404.292C-125.706,404.292 -125.856,404.141 -125.856,403.956L-125.856,402.39C-125.856,402.205 -125.706,402.055 -125.521,402.055L-124.85,402.055C-124.665,402.055 -124.514,402.205 -124.514,402.39Z" style="fill:rgb(202,71,0);"/>
                        </g>
                    </g>
                </g>
            </g>
        </g>
    </g>
</svg>
