<svg width="50" height="50" viewBox="0 0 50 50" fill="none" xmlns="http://www.w3.org/2000/svg">
<path d="M40.625 10.9375H35.2109L32.5488 6.94531C32.4062 6.73155 32.2131 6.55626 31.9865 6.43497C31.7599 6.31369 31.507 6.25015 31.25 6.25H18.75C18.493 6.25015 18.2401 6.31369 18.0135 6.43497C17.7869 6.55626 17.5938 6.73155 17.4512 6.94531L14.7871 10.9375H9.375C8.1318 10.9375 6.93951 11.4314 6.06044 12.3104C5.18136 13.1895 4.6875 14.3818 4.6875 15.625V37.5C4.6875 38.7432 5.18136 39.9355 6.06044 40.8146C6.93951 41.6936 8.1318 42.1875 9.375 42.1875H40.625C41.8682 42.1875 43.0605 41.6936 43.9396 40.8146C44.8186 39.9355 45.3125 38.7432 45.3125 37.5V15.625C45.3125 14.3818 44.8186 13.1895 43.9396 12.3104C43.0605 11.4314 41.8682 10.9375 40.625 10.9375ZM42.1875 37.5C42.1875 37.9144 42.0229 38.3118 41.7299 38.6049C41.4368 38.8979 41.0394 39.0625 40.625 39.0625H9.375C8.9606 39.0625 8.56317 38.8979 8.27015 38.6049C7.97712 38.3118 7.8125 37.9144 7.8125 37.5V15.625C7.8125 15.2106 7.97712 14.8132 8.27015 14.5201C8.56317 14.2271 8.9606 14.0625 9.375 14.0625H15.625C15.8823 14.0627 16.1357 13.9993 16.3626 13.878C16.5895 13.7567 16.783 13.5812 16.9258 13.3672L19.5859 9.375H30.4121L33.0742 13.3672C33.217 13.5812 33.4105 13.7567 33.6374 13.878C33.8643 13.9993 34.1177 14.0627 34.375 14.0625H40.625C41.0394 14.0625 41.4368 14.2271 41.7299 14.5201C42.0229 14.8132 42.1875 15.2106 42.1875 15.625V37.5ZM25 17.1875C23.3003 17.1875 21.6388 17.6915 20.2256 18.6358C18.8123 19.5801 17.7109 20.9223 17.0604 22.4926C16.41 24.0629 16.2398 25.7908 16.5714 27.4578C16.903 29.1248 17.7214 30.6561 18.9233 31.8579C20.1252 33.0598 21.6564 33.8783 23.3234 34.2099C24.9905 34.5415 26.7184 34.3713 28.2887 33.7208C29.859 33.0704 31.2011 31.9689 32.1454 30.5557C33.0897 29.1424 33.5938 27.4809 33.5938 25.7812C33.5912 23.5028 32.6849 21.3185 31.0738 19.7074C29.4628 18.0963 27.2784 17.1901 25 17.1875ZM25 31.25C23.9184 31.25 22.8611 30.9293 21.9617 30.3283C21.0624 29.7274 20.3615 28.8733 19.9475 27.874C19.5336 26.8748 19.4253 25.7752 19.6363 24.7143C19.8473 23.6535 20.3682 22.6791 21.133 21.9143C21.8978 21.1494 22.8723 20.6286 23.9331 20.4176C24.9939 20.2066 26.0935 20.3149 27.0928 20.7288C28.0921 21.1427 28.9462 21.8436 29.5471 22.743C30.148 23.6423 30.4688 24.6996 30.4688 25.7812C30.4688 27.2317 29.8926 28.6227 28.867 29.6482C27.8414 30.6738 26.4504 31.25 25 31.25Z" fill="#CA4700"/>
</svg>
