<svg width="50" height="50" viewBox="0 0 50 50" fill="none" xmlns="http://www.w3.org/2000/svg">
<path d="M34.375 42.1879C34.375 42.6023 34.2103 42.9997 33.9173 43.2927C33.6243 43.5858 33.2269 43.7504 32.8125 43.7504H4.68746C4.27306 43.7504 3.87563 43.5858 3.58261 43.2927C3.28958 42.9997 3.12496 42.6023 3.12496 42.1879C3.12496 41.7735 3.28958 41.376 3.58261 41.083C3.87563 40.79 4.27306 40.6254 4.68746 40.6254H32.8125C33.2269 40.6254 33.6243 40.79 33.9173 41.083C34.2103 41.376 34.375 41.7735 34.375 42.1879ZM48.4101 18.1937C48.3692 18.4112 48.2826 18.6175 48.156 18.799C48.0294 18.9805 47.8657 19.133 47.6757 19.2465L18.8847 36.434C17.6846 37.1377 16.319 37.5098 14.9277 37.5121C12.9459 37.5098 11.0398 36.7504 9.59957 35.389L9.57613 35.3656L2.53902 28.4769C2.1667 28.1234 1.88723 27.6835 1.72533 27.1962C1.56343 26.709 1.52409 26.1893 1.61079 25.6832C1.69748 25.1772 1.90755 24.7002 2.2224 24.2946C2.53725 23.889 2.94719 23.5673 3.41598 23.3578L4.00191 23.0707C4.37194 22.889 4.79877 22.8609 5.18941 22.9926L10.7089 24.8558L14.6484 22.473L10.3847 18.3344C10.0013 17.9811 9.71233 17.5375 9.54416 17.044C9.376 16.5505 9.33397 16.0228 9.42192 15.5089C9.50986 14.995 9.72498 14.5113 10.0477 14.1018C10.3704 13.6923 10.7904 13.3701 11.2695 13.1644L11.332 13.139L12.7285 12.6097C13.0806 12.4785 13.4682 12.4785 13.8203 12.6097L24.3554 16.4808L34.4277 10.4691C36.0328 9.51383 37.9281 9.16811 39.7671 9.49517C41.6061 9.82224 43.266 10.8002 44.4433 12.2504L44.4668 12.2797L48.1074 16.9457C48.2434 17.1204 48.3407 17.322 48.3929 17.5372C48.4451 17.7523 48.451 17.9761 48.4101 18.1937ZM44.5546 17.4711L42.0156 14.2152C41.3089 13.3507 40.3155 12.7684 39.2159 12.5741C38.1163 12.3799 36.9835 12.5866 36.0234 13.1566L25.3203 19.5472C25.1198 19.6661 24.8955 19.739 24.6634 19.7606C24.4314 19.7822 24.1974 19.752 23.9785 19.6722L13.2812 15.7387L12.5 16.0375L12.541 16.0765L18.2753 21.641C18.4466 21.8074 18.5774 22.0108 18.6578 22.2357C18.7382 22.4606 18.766 22.7008 18.739 22.9381C18.712 23.1754 18.631 23.4033 18.5022 23.6043C18.3735 23.8054 18.2003 23.9743 17.9961 24.098L11.705 27.9047C11.5104 28.0222 11.2925 28.0959 11.0665 28.1205C10.8405 28.1451 10.6118 28.1201 10.3964 28.0473L4.79683 26.1586L4.75973 26.1781L4.68746 26.2113C4.69687 26.218 4.7054 26.2259 4.71285 26.2348L11.7441 33.1215C12.4779 33.811 13.4154 34.2443 14.4161 34.3562C15.4168 34.4682 16.4268 34.2529 17.2949 33.7426L44.5546 17.4711Z" fill="#CA4700"/>
</svg>
