<svg width="50" height="50" viewBox="0 0 50 50" fill="none" xmlns="http://www.w3.org/2000/svg">
<path d="M39.0625 32.8125C37.6769 32.8138 36.3308 33.2747 35.2352 34.1229C34.1395 34.9712 33.3562 36.1589 33.0078 37.5H14.0625C12.4049 37.5 10.8152 36.8415 9.64308 35.6694C8.47098 34.4973 7.8125 32.9076 7.8125 31.25C7.8125 29.5924 8.47098 28.0027 9.64308 26.8306C10.8152 25.6585 12.4049 25 14.0625 25H32.8125C34.8845 25 36.8716 24.1769 38.3368 22.7118C39.8019 21.2466 40.625 19.2595 40.625 17.1875C40.625 15.1155 39.8019 13.1284 38.3368 11.6632C36.8716 10.1981 34.8845 9.375 32.8125 9.375H14.0625C13.6481 9.375 13.2507 9.53962 12.9576 9.83265C12.6646 10.1257 12.5 10.5231 12.5 10.9375C12.5 11.3519 12.6646 11.7493 12.9576 12.0424C13.2507 12.3354 13.6481 12.5 14.0625 12.5H32.8125C34.0557 12.5 35.248 12.9939 36.1271 13.8729C37.0061 14.752 37.5 15.9443 37.5 17.1875C37.5 18.4307 37.0061 19.623 36.1271 20.5021C35.248 21.3811 34.0557 21.875 32.8125 21.875H14.0625C11.5761 21.875 9.19153 22.8627 7.43337 24.6209C5.67522 26.379 4.6875 28.7636 4.6875 31.25C4.6875 33.7364 5.67522 36.121 7.43337 37.8791C9.19153 39.6373 11.5761 40.625 14.0625 40.625H33.0078C33.3 41.7567 33.9037 42.7838 34.7504 43.5896C35.597 44.3955 36.6526 44.9478 37.7974 45.1838C38.9421 45.4198 40.1301 45.33 41.2264 44.9248C42.3227 44.5195 43.2835 43.8149 43.9994 42.8911C44.7154 41.9672 45.158 40.8611 45.2769 39.6983C45.3958 38.5356 45.1863 37.3628 44.6721 36.3131C44.158 35.2634 43.3598 34.379 42.3682 33.7602C41.3766 33.1414 40.2313 32.8131 39.0625 32.8125ZM39.0625 42.1875C38.4444 42.1875 37.8402 42.0042 37.3263 41.6608C36.8124 41.3175 36.4119 40.8294 36.1754 40.2584C35.9389 39.6874 35.877 39.059 35.9975 38.4528C36.1181 37.8467 36.4158 37.2898 36.8528 36.8528C37.2898 36.4158 37.8467 36.1181 38.4528 35.9975C39.059 35.877 39.6874 35.9389 40.2584 36.1754C40.8294 36.4119 41.3175 36.8124 41.6608 37.3263C42.0042 37.8402 42.1875 38.4444 42.1875 39.0625C42.1875 39.8913 41.8583 40.6862 41.2722 41.2722C40.6862 41.8583 39.8913 42.1875 39.0625 42.1875Z" fill="#CA4700"/>
</svg>
